<svg id="visual" viewBox="0 0 900 600" width="900" height="600" xmlns="http://www.w3.org/2000/svg" xmlns:xlink="http://www.w3.org/1999/xlink" version="1.1"><rect x="0" y="0" width="900" height="600" fill="#F7F7F7"></rect><path d="M0 324L50 319.7C100 315.3 200 306.7 300 317.3C400 328 500 358 600 362.7C700 367.3 800 346.7 850 336.3L900 326L900 601L850 601C800 601 700 601 600 601C500 601 400 601 300 601C200 601 100 601 50 601L0 601Z" fill="#ffbc97"></path><path d="M0 365L50 367.8C100 370.7 200 376.3 300 370.7C400 365 500 348 600 350.7C700 353.3 800 375.7 850 386.8L900 398L900 601L850 601C800 601 700 601 600 601C500 601 400 601 300 601C200 601 100 601 50 601L0 601Z" fill="#ffb279"></path><path d="M0 419L50 420.7C100 422.3 200 425.7 300 431.8C400 438 500 447 600 456.8C700 466.7 800 477.3 850 482.7L900 488L900 601L850 601C800 601 700 601 600 601C500 601 400 601 300 601C200 601 100 601 50 601L0 601Z" fill="#ffae66"></path><path d="M0 485L50 488.2C100 491.3 200 497.7 300 496.3C400 495 500 486 600 483.2C700 480.3 800 483.7 850 485.3L900 487L900 601L850 601C800 601 700 601 600 601C500 601 400 601 300 601C200 601 100 601 50 601L0 601Z" fill="#ffb279"></path><path d="M0 559L50 551.3C100 543.7 200 528.3 300 529.5C400 530.7 500 548.3 600 548C700 547.7 800 529.3 850 520.2L900 511L900 601L850 601C800 601 700 601 600 601C500 601 400 601 300 601C200 601 100 601 50 601L0 601Z" fill="#ffbc97"></path></svg>