<svg id="visual" viewBox="0 0 900 600" width="900" height="600" xmlns="http://www.w3.org/2000/svg" xmlns:xlink="http://www.w3.org/1999/xlink" version="1.1"><rect x="0" y="0" width="900" height="600" fill="#F7F7F7"></rect><defs><linearGradient id="grad1_0" x1="33.3%" y1="0%" x2="100%" y2="100%"><stop offset="20%" stop-color="#ff7800" stop-opacity="1"></stop><stop offset="80%" stop-color="#ff7800" stop-opacity="1"></stop></linearGradient></defs><defs><linearGradient id="grad1_1" x1="33.3%" y1="0%" x2="100%" y2="100%"><stop offset="20%" stop-color="#ff7800" stop-opacity="1"></stop><stop offset="80%" stop-color="#ffa362" stop-opacity="1"></stop></linearGradient></defs><defs><linearGradient id="grad1_2" x1="33.3%" y1="0%" x2="100%" y2="100%"><stop offset="20%" stop-color="#ffcdac" stop-opacity="1"></stop><stop offset="80%" stop-color="#ffa362" stop-opacity="1"></stop></linearGradient></defs><defs><linearGradient id="grad1_3" x1="33.3%" y1="0%" x2="100%" y2="100%"><stop offset="20%" stop-color="#ffcdac" stop-opacity="1"></stop><stop offset="80%" stop-color="#f7f7f7" stop-opacity="1"></stop></linearGradient></defs><defs><linearGradient id="grad2_0" x1="0%" y1="0%" x2="66.7%" y2="100%"><stop offset="20%" stop-color="#ff7800" stop-opacity="1"></stop><stop offset="80%" stop-color="#ff7800" stop-opacity="1"></stop></linearGradient></defs><defs><linearGradient id="grad2_1" x1="0%" y1="0%" x2="66.7%" y2="100%"><stop offset="20%" stop-color="#ffa362" stop-opacity="1"></stop><stop offset="80%" stop-color="#ff7800" stop-opacity="1"></stop></linearGradient></defs><defs><linearGradient id="grad2_2" x1="0%" y1="0%" x2="66.7%" y2="100%"><stop offset="20%" stop-color="#ffa362" stop-opacity="1"></stop><stop offset="80%" stop-color="#ffcdac" stop-opacity="1"></stop></linearGradient></defs><defs><linearGradient id="grad2_3" x1="0%" y1="0%" x2="66.7%" y2="100%"><stop offset="20%" stop-color="#f7f7f7" stop-opacity="1"></stop><stop offset="80%" stop-color="#ffcdac" stop-opacity="1"></stop></linearGradient></defs><g transform="translate(900, 0)"><path d="M0 378.6C-41.8 327 -83.5 275.4 -144.5 250.3C-205.5 225.2 -285.6 226.6 -327.9 189.3C-370.1 152 -374.3 76 -378.6 0L0 0Z" fill="#ffe2d1"></path><path d="M0 283.9C-31.3 245.2 -62.6 206.5 -108.4 187.7C-154.1 168.9 -214.2 169.9 -245.9 142C-277.6 114 -280.7 57 -283.9 0L0 0Z" fill="#ffb887"></path><path d="M0 189.3C-20.9 163.5 -41.8 137.7 -72.2 125.1C-102.7 112.6 -142.8 113.3 -163.9 94.6C-185 76 -187.2 38 -189.3 0L0 0Z" fill="#ff8e3c"></path><path d="M0 94.6C-10.4 81.7 -20.9 68.8 -36.1 62.6C-51.4 56.3 -71.4 56.6 -82 47.3C-92.5 38 -93.6 19 -94.6 0L0 0Z" fill="#ff7800"></path></g><g transform="translate(0, 600)"><path d="M0 -378.6C46 -334.4 92.1 -290.2 152.5 -264.1C212.9 -238.1 287.8 -230.3 327.9 -189.3C367.9 -148.3 373.3 -74.2 378.6 0L0 0Z" fill="#ffe2d1"></path><path d="M0 -283.9C34.5 -250.8 69 -217.6 114.4 -198.1C159.7 -178.6 215.8 -172.7 245.9 -142C276 -111.2 279.9 -55.6 283.9 0L0 0Z" fill="#ffb887"></path><path d="M0 -189.3C23 -167.2 46 -145.1 76.2 -132.1C106.5 -119.1 143.9 -115.1 163.9 -94.6C184 -74.2 186.6 -37.1 189.3 0L0 0Z" fill="#ff8e3c"></path><path d="M0 -94.6C11.5 -83.6 23 -72.5 38.1 -66C53.2 -59.5 71.9 -57.6 82 -47.3C92 -37.1 93.3 -18.5 94.6 0L0 0Z" fill="#ff7800"></path></g></svg>